<!-- icon666.com - MILLIONS OF FREE VECTOR ICONS --><svg id="svg1787" viewBox="0 0 8.4666664 8.4666664" xmlns="http://www.w3.org/2000/svg" xmlns:svg="http://www.w3.org/2000/svg"><g id="layer1" transform="translate(0 -288.533)"><path id="rect4829-4" d="m1.058365 294.53508v.87715c0 .58632.47201 1.05834 1.05833 1.05834h4.23333c.58632 0 1.05834-.47202 1.05834-1.05834v-.86062c0-2.40709-6.35-2.35135-6.35-.0165z" fill="#75b5ff"></path><path id="path4869-3" d="m5.7220671 290.55157a1.4887394 1.4887394 0 0 1 -1.4887284 1.48875 1.4887394 1.4887394 0 0 1 -1.4887391-1.48875 1.4887394 1.4887394 0 0 1 1.4887391-1.48874 1.4887394 1.4887394 0 0 1 1.4887284 1.48874z" fill="#75b5ff"></path><path id="path9605" d="m20.81836 16.490234c-4.489423 3.089673-7.335834 8.068933-7.681641 13.507813h10.863281c2.216013 0 4-1.783988 4-4v-3.251953c0-3.304883-3.14843-5.374403-7.18164-6.25586z" fill="#488bff" transform="matrix(.265 0 0 .265 0 288.533)"></path></g></svg>